<svg width="314" height="256" viewBox="0 0 314 256" fill="none" xmlns="http://www.w3.org/2000/svg">
<path d="M312.23 165.871C312.23 183.066 308.639 198.41 301.457 211.905C294.492 225.399 284.371 235.955 271.094 243.573C257.817 251.191 242.364 255 224.734 255C207.105 255 191.651 251.191 178.374 243.573C165.315 235.955 155.194 225.399 148.012 211.905C141.047 198.41 137.565 183.066 137.565 165.871V90.1285C137.565 73.1517 141.156 57.916 148.338 44.4216C155.521 30.9272 165.642 20.371 178.701 12.7532C191.978 4.91774 207.322 1 224.734 1C242.364 1 257.817 4.91774 271.094 12.7532C284.371 20.371 294.492 30.9272 301.457 44.4216C308.639 57.916 312.23 73.1517 312.23 90.1285V165.871ZM192.087 167.504C192.087 179.039 194.807 188.181 200.249 194.928C205.907 201.458 214.069 204.722 224.734 204.722C235.617 204.722 243.779 201.458 249.22 194.928C254.879 188.398 257.709 179.257 257.709 167.504V88.4961C257.709 76.9606 254.879 67.928 249.22 61.3984C243.779 54.6512 235.617 51.2776 224.734 51.2776C214.287 51.2776 206.234 54.6512 200.575 61.3984C194.916 68.1457 192.087 77.1782 192.087 88.4961V167.504Z" fill="white" fill-opacity="0.02"/>
<path d="M178.123 244.005L178.126 244.007C191.489 251.674 207.031 255.5 224.734 255.5C242.438 255.5 257.98 251.674 271.343 244.007C284.702 236.342 294.89 225.717 301.899 212.137C309.124 198.563 312.73 183.137 312.73 165.871V90.1285C312.73 73.0799 309.124 57.7629 301.899 44.189C294.89 30.6106 284.703 19.9854 271.345 12.3208C257.982 4.4349 242.439 0.5 224.734 0.5C207.245 0.5 191.811 4.43584 178.448 12.322C165.308 19.9871 155.123 30.6116 147.897 44.1867C140.672 57.7611 137.065 73.0789 137.065 90.1285V165.871C137.065 183.135 140.562 198.56 147.568 212.134L147.571 212.14C154.796 225.715 164.982 236.34 178.123 244.005ZM248.842 194.6L248.836 194.608C243.515 200.993 235.513 204.222 224.734 204.222C214.181 204.222 206.174 200.998 200.632 194.607C195.287 187.975 192.587 178.959 192.587 167.504V88.4961C192.587 77.2615 195.394 68.3538 200.958 61.7198C206.504 55.1073 214.404 51.7776 224.734 51.7776C235.508 51.7776 243.508 55.1122 248.831 61.7123L248.837 61.7192L248.842 61.7259C254.399 68.1379 257.209 77.0401 257.209 88.4961V167.504C257.209 179.18 254.398 188.19 248.842 194.6Z" stroke="white" stroke-opacity="0.3"/>
<path d="M60.0925 5.57074H107.758V250.429H52.2571V62.0515L1 82.2931V30.3831L60.0925 5.57074Z" fill="white" fill-opacity="0.02"/>
<path d="M60.0925 5.07074H59.9918L59.899 5.10973L0.806427 29.9221L0.5 30.0507V30.3831V82.2931V83.0281L1.18365 82.7581L51.7571 62.7865V250.429V250.929H52.2571H107.758H108.258V250.429V5.57074V5.07074H107.758H60.0925Z" stroke="white" stroke-opacity="0.3"/>
</svg>
